# xmcd
#
# Track frame offsets: 
#        150
#        15002
#        29156
#        42911
#        57541
#        71966
#        86837
#        99069
#        112988
#        126530
#        141032
#        154542
#        169020
#        183506
#
# Disc length: 2629 seconds
#
# Revision: 0
# Processed by: cddbd v1.5.2PL0 Copyright (c) Steve Scherf et al.
# Submitted via: ExactAudioCopy v0.99pb5
#
DISCID=bb0a430e
DTITLE=ทูล ทองใจ - Boxset แผ่น 6 กระดังงาลนไฟ
DYEAR=1900
DGENRE=Vocal
TTITLE0=อันเป็นดวงใจ
TTITLE1=ขอบฟ้ากำแพงดิน
TTITLE2=คืนนั้น
TTITLE3=บ่วงมาร
TTITLE4=ปรารถนา
TTITLE5=กลิ่นแก้มนาง
TTITLE6=จูบมัดจำ
TTITLE7=จากเหนือเมื่อหนาว
TTITLE8=น้องนางเมืองใต้
TTITLE9=สุดาดอกฟ้า
TTITLE10=ลืมพี่
TTITLE11=กระดังงาลนไฟ
TTITLE12=ดอกทานตะวัน
TTITLE13=ฝากหัวใจ
EXTD=
EXTT0=
EXTT1=
EXTT2=
EXTT3=
EXTT4=
EXTT5=
EXTT6=
EXTT7=
EXTT8=
EXTT9=
EXTT10=
EXTT11=
EXTT12=
EXTT13=
PLAYORDER=
